<?xml version="1.0" standalone="no"?>
<!DOCTYPE svg PUBLIC "-//W3C//DTD SVG 1.1//EN" "http://www.w3.org/Graphics/SVG/1.1/DTD/svg11.dtd" >
<!--
2013-9-30: Created.
-->
<svg>
<metadata>
Created by iconfont
</metadata>
<defs>

<font id="iconfont" horiz-adv-x="1024" >
  <font-face
    font-family="iconfont"
    font-weight="500"
    font-stretch="normal"
    units-per-em="1024"
    ascent="896"
    descent="-128"
  />
    <missing-glyph />
    
    <glyph glyph-name="biaoqing-" unicode="&#58941;" d="M944.15 610.74c-9.86 0-17.85 7.99-17.85 17.85V738.06c0 33.22-27.03 60.25-60.25 60.25H157.94c-33.22 0-60.25-27.03-60.25-60.25v-109.48c0-9.86-7.99-17.85-17.85-17.85S62 618.73 62 628.58V738.06C62 790.96 105.04 834 157.94 834h708.13c52.9 0 95.94-43.04 95.94-95.94v-109.48c-0.01-9.85-8-17.84-17.86-17.84zM866.06-66H157.94C105.04-66 62-22.96 62 29.94V139.42c0 9.86 7.99 17.85 17.85 17.85s17.85-7.99 17.85-17.85v-109.48c0-33.22 27.03-60.25 60.25-60.25h708.13c33.22 0 60.25 27.03 60.25 60.25V139.42c0 9.86 7.99 17.85 17.85 17.85 9.86 0 17.85-7.99 17.85-17.85v-109.48C962-22.96 918.96-66 866.06-66zM97.5 482.17c-0.29 0.57 0.57 3.05 2.56 7.47 1.99 4.41 6.54 7.32 13.66 8.75h43.53V575.2c-0.57 0.57 0.07 2.84 1.92 6.83 1.85 3.98 6.89 6.25 15.15 6.83 0.57 0 3.13-0.93 7.68-2.77 4.55-1.85 7.68-6.05 9.39-12.59v-75.11h38.41c0.57 0 3.05-1 7.47-2.99 4.41-1.99 7.32-6.4 8.75-13.23 0-0.85-1-3.49-2.99-7.9-1.99-4.41-6.4-6.9-13.23-7.47h-38.41v-17.07c1.99 0.57 24.18-30.45 66.57-93.03 0.57-0.57 1.42-4.13 2.56-10.67 1.13-6.55-0.85-12.66-5.97-18.35-0.57-0.85-3.35-1.92-8.32-3.2-4.98-1.28-9.89 2.06-14.72 10.03 0.28-0.85-1.99 2.56-6.83 10.24-1.43 1.42-12.52 19.63-33.29 54.63v-201.86c0-0.57-1-2.91-2.99-7.04-1.99-4.12-6.69-6.62-14.08-7.47-0.85-0.28-3.77 0.36-8.75 1.92-4.98 1.57-7.75 5.76-8.32 12.59V384.87c-0.29-1.14-3.99-10.32-11.1-27.53-7.11-17.22-16.22-35.92-27.31-56.12-0.29-1.14-2.77-4.34-7.47-9.6-4.69-5.27-10.46-6.61-17.28-4.05-0.57-0.29-1.64 1.85-3.2 6.4-1.57 4.55-1.07 11.8 1.49 21.76 1.13 0.85 8.39 15.5 21.76 43.96 13.37 28.45 26.03 64.15 37.98 107.12H112c-0.85-0.57-3.35 0-7.47 1.71-4.12 1.7-6.46 6.25-7.03 13.65z m233.86-116.08c0-1.14-4.13-13.66-12.38-37.55-8.26-23.9-22.05-53.21-41.4-87.91-0.29-0.85-3.06-3.2-8.32-7.04-5.27-3.84-11.31-5.19-18.14-4.05-0.85-0.29-2.77 1.77-5.76 6.19-2.99 4.41-2.21 11.74 2.35 21.98 1.13 0.85 7.82 12.87 20.06 36.06 12.23 23.19 22.9 50.71 32.01 82.58-0.29 0.57 0.92 3.2 3.63 7.9 2.7 4.69 8.04 6.61 16 5.76 0.57 0 2.91-1.92 7.04-5.76 4.12-3.86 5.77-9.91 4.91-18.16z m-11.95-153.2c1.71-0.85 8.6-1.77 20.7-2.77 12.09-0.99 19.13 3.91 21.12 14.72V421.57h-96.45c-0.85-0.57-3.77 0-8.75 1.71s-7.75 6.25-8.32 13.66c-0.57 0.57 0.07 3.05 1.92 7.47 1.85 4.41 6.89 7.32 15.15 8.75H486.7c0.28 0 2.56-1 6.83-2.99 4.27-1.99 7.11-6.4 8.54-13.23 0.28-0.85-0.29-3.49-1.71-7.9-1.43-4.41-5.41-6.9-11.95-7.47h-93.03v-200.15c1.13-2.56-2.99-11.24-12.38-26.03-9.39-14.79-32.58-19.48-69.56-14.08-0.85 0-3.13 1.49-6.83 4.48s-5.41 8.04-5.12 15.15c-0.29 0.85 0.85 3.35 3.41 7.47 2.56 4.12 7.4 5.62 14.51 4.48z m174.12 339.27c0-0.85-0.93-3.49-2.77-7.9-1.85-4.41-5.76-6.9-11.74-7.47H291.25c-0.85-0.57-3.63 0-8.32 1.71s-7.33 6.25-7.9 13.66c-0.57 0.57 0.21 3.05 2.35 7.47 2.13 4.41 7.32 7.32 15.58 8.75h186.07c0.28 0 2.41-1 6.4-2.99 3.97-2 6.67-6.4 8.1-13.23z m-3.41-322.63c-0.57-0.57-3.27 0-8.11 1.71s-8.68 6.54-11.52 14.51c-0.29 0.57-4.05 10.6-11.31 30.09-7.25 19.48-17.43 44.74-30.51 75.75-0.85 0.28-1.71 2.99-2.56 8.11s2.27 10.1 9.39 14.94c0.28 0.28 2.77 0.14 7.47-0.43 4.69-0.57 9.88-4.41 15.58-11.52 1.13-2.28 7.25-15.86 18.35-40.76 11.1-24.9 19.48-48.01 25.18-69.35 0.28-0.85-0.07-4.48-1.07-10.88-1.01-6.41-4.64-10.46-10.89-12.17zM629.24 343.05c-0.29-2.85-5.48-19.92-15.58-51.21-10.1-31.3-24.26-61.03-42.46-89.19-0.29-0.57-2.92-2.49-7.9-5.76-4.98-3.27-11.17-3.05-18.56 0.64-0.85 0.29-2.78 2.99-5.76 8.11-2.99 5.12-2.21 11.52 2.35 19.2 1.13 0.57 8.17 12.52 21.12 35.85 12.94 23.33 24.11 53.63 33.5 90.9-0.29 0.57 1.21 2.77 4.48 6.61 3.27 3.84 9.18 5.33 17.71 4.48 0.57 0 2.63-1.35 6.19-4.05 3.56-2.71 5.19-7.9 4.91-15.58z m-19.63 55.48c-0.29-0.85-2.78-2.35-7.47-4.48-4.7-2.13-9.89-0.36-15.58 5.33-0.29 0.28-4.13 4.05-11.52 11.31-7.4 7.25-16.64 15.43-27.74 24.54-0.85 0-2.63 2.06-5.34 6.19-2.71 4.12-1.78 9.74 2.78 16.86 0 0.57 2.35 2.06 7.04 4.48 4.69 2.41 10.6 1.49 17.71-2.77 0.57-0.57 5.47-4.55 14.72-11.95 9.24-7.4 17.71-15.08 25.39-23.04 0.57-0.57 1.77-3.7 3.63-9.39 1.85-5.71 0.65-11.4-3.62-17.08z m-5.12 96.44c-1.99 1.42-11.95 10.52-29.87 27.31-2.28 1.13-6.26 4.83-11.95 11.1-0.85 0-2.99 2.2-6.4 6.61s-2.99 10.17 1.28 17.28c0 0.57 2.27 2.06 6.83 4.48 4.55 2.41 10.81 2.06 18.78-1.07 0.28-0.29 4.69-4.05 13.23-11.31s18.63-16.29 30.3-27.1c0.28-0.57 1.42-3.7 3.41-9.39 1.99-5.69 1.42-11.67-1.71-17.92-0.29-0.85-2.85-2.42-7.68-4.69-4.85-2.27-10.25-0.7-16.22 4.7z m36.7 35c-0.57 0.28 0 2.56 1.71 6.83s6.25 7.11 13.66 8.54h111.81v18.78c-0.57 0.28 0 2.41 1.71 6.4 1.71 3.98 6.25 6.68 13.66 8.11 0.57 0 3.05-0.93 7.47-2.77 4.41-1.85 7.32-5.76 8.75-11.74v-18.78h112.66c2.84 1.71 6.54-3.41 11.1-15.36 0-0.85-0.71-3.35-2.13-7.47-1.43-4.13-4.41-6.48-8.96-7.04H799.94v-23.9h95.59c0.28 0 2.56-0.85 6.83-2.56s7.11-5.12 8.54-10.24c0-0.57-0.93-2.63-2.78-6.19-1.85-3.56-6.05-5.48-12.59-5.76h-95.59v-23.9h119.49c0.57 0 2.91-0.93 7.04-2.77 4.12-1.85 6.62-5.76 7.47-11.74 0.28-0.85-0.36-3.49-1.92-7.9-1.57-4.41-5.76-6.9-12.59-7.47H639.48c-1.71 0.28-4.7 3.41-8.96 9.39s-1.28 12.8 8.96 20.48h128.88v23.9h-95.59c-0.85-0.29-3.35 0.14-7.47 1.28-4.13 1.13-6.47 4.69-7.04 10.67-0.57 0.28-0.07 2.13 1.49 5.55 1.56 3.41 5.9 5.83 13.02 7.25h95.59v23.9H656.55c-0.85-0.57-3.49-0.07-7.9 1.49s-6.9 5.9-7.46 13.02z m46.94-330.74c0-0.28-1-2.41-2.99-6.4-1.99-3.98-6.69-6.68-14.08-8.11-0.85 0-3.35 0.93-7.47 2.77-4.13 1.85-6.47 5.76-7.04 11.74V362.68c-0.85 1.13-0.15 6.11 2.13 14.94 2.27 8.81 10.95 13.51 26.03 14.08H877.6c1.42 0.57 7.18-0.79 17.28-4.05 10.1-3.27 16-12.16 17.71-26.67v-123.76c0.28-0.57 0.21-3.35-0.21-8.32-0.43-4.97-2.99-10.52-7.68-16.64-4.69-6.12-13.52-10.74-26.46-13.87-12.95-3.13-31.65-2.84-56.12 0.85-0.85 0-3.49 1.35-7.9 4.05-4.41 2.71-6.9 8.18-7.47 16.43-0.29 0.57 0.92 2.49 3.63 5.76 2.7 3.27 8.32 5.19 16.86 5.76 2.56-0.85 12.16-1.57 28.8-2.13 16.64-0.57 24.68 3.27 24.11 11.52V259.4H688.13v-60.17z m0 150.65v-17.07h192.04v17.07c0 0.28-0.57 1.77-1.71 4.48-1.14 2.7-4.27 4.33-9.39 4.91h-170.7c-0.57 0-2.56-0.5-5.97-1.49-3.42-1.01-4.84-3.64-4.27-7.9z m192.04-41.83H688.13v-23.9h192.04v23.9z"  horiz-adv-x="1024" />

    
    <glyph glyph-name="gaoqing" unicode="&#58942;" d="M944.15 610.74c-9.86 0-17.85 7.99-17.85 17.85V738.06c0 33.22-27.03 60.25-60.25 60.25H157.94c-33.22 0-60.25-27.03-60.25-60.25v-109.48c0-9.86-7.99-17.85-17.85-17.85S62 618.73 62 628.5799999999999V738.06C62 790.96 105.04 834 157.94 834h708.13c52.9 0 95.94-43.04 95.94-95.94v-109.48c-0.01-9.85-8-17.84-17.86-17.84zM866.06-66H157.94C105.04-66 62-22.960000000000036 62 29.940000000000055V139.41999999999996c0 9.86 7.99 17.85 17.85 17.85s17.85-7.99 17.85-17.85v-109.48c0-33.22 27.03-60.25 60.25-60.25h708.13c33.22 0 60.25 27.03 60.25 60.25V139.41999999999996c0 9.86 7.99 17.85 17.85 17.85 9.86 0 17.85-7.99 17.85-17.85v-109.48C962-22.960000000000036 918.96-66 866.06-66zM269.6 586.55c0.28 0.28 3.2 0.49 8.75 0.64 5.55 0.14 11.16-2.92 16.86-9.18-0.85 0.28 0.85-3.7 5.12-11.95 0-0.85 1.13-3.77 3.41-8.75 2.27-4.98 3.98-8.61 5.12-10.88h167.29c0.28 0 2.41-0.93 6.4-2.77 3.98-1.85 6.68-6.05 8.11-12.59 0-0.85-0.93-3.35-2.77-7.47-1.85-4.13-5.76-6.48-11.74-7.04h-363.6c-0.57-0.57-2.85-0.07-6.83 1.49-3.99 1.56-6.55 5.9-7.68 13.02-0.29 0.28 0.49 2.56 2.35 6.83 1.85 4.27 5.9 7.11 12.16 8.54H271.3c-0.29-0.57-1.43 2.27-3.41 8.54-0.85 1.71-1.71 5.12-2.56 10.24-0.85 0.28-1.85 2.7-2.99 7.25-1.14 4.54 1.28 9.24 7.26 14.08zM142.42 198.62c0.28-0.28-0.5-2.41-2.35-6.4-1.85-3.98-6.47-6.68-13.87-8.11-0.85 0-3.77 0.93-8.75 2.77-4.98 1.85-7.75 5.76-8.32 11.74V340.73c-0.85 1.42 0.21 7.47 3.2 18.14 2.99 10.67 12.73 16.86 29.23 18.56h303.85c1.42 0.85 7.68-0.5 18.78-4.05 11.1-3.56 17.07-14.44 17.92-32.65V217.39999999999998c0-0.28-0.43-2.99-1.28-8.11s-3.84-10.52-8.96-16.22c-5.12-5.69-13.94-9.53-26.46-11.52-12.52-1.99-30.16 0-52.92 5.97-0.57 0-2.56 1.35-5.97 4.05-3.41 2.71-4.84 7.33-4.27 13.87-0.29 0.85 0.92 3.35 3.63 7.47 2.7 4.13 6.89 5.62 12.59 4.48 2.27-1.13 11.24-2.84 26.89-5.12 15.64-2.27 23.47 2.13 23.47 13.23V330.49c0.28 0.57-0.36 3.34-1.92 8.32-1.57 4.97-5.76 7.9-12.59 8.75H161.2c-0.85 0.28-4.13-0.5-9.82-2.35s-8.68-6.76-8.96-14.72v-131.87zM427.5 420.96c0.57-1.14-0.57-5.05-3.41-11.74-2.85-6.69-10.82-10.18-23.9-10.46H189.37c-1.43-0.85-6.12 0.35-14.08 3.63-7.97 3.27-12.1 12.87-12.38 28.81v35c-0.85 0.85 0.21 5.19 3.2 13.02 2.99 7.82 12.44 12.3 28.38 13.44h198.87c1.42 0.57 7.47-0.36 18.14-2.77 10.67-2.42 16-10.32 16-23.69v-45.24z m-22.19-170.7c0.28-1.43-0.93-6.05-3.63-13.87-2.71-7.83-10.32-12.44-22.83-13.87H211.56c-1.43-0.28-6.61 0.64-15.58 2.77-8.96 2.13-13.16 8.75-12.59 19.84V295.5c-0.85 1.13-0.07 5.97 2.35 14.51 2.41 8.54 11.59 13.08 27.53 13.66h160.46c1.13 0.57 6.33-0.71 15.58-3.84 9.24-3.13 14.58-11.81 16-26.03v-43.54zM194.49 438.04c-0.29-0.85 0.28-3.13 1.71-6.83 1.42-3.7 5.4-5.41 11.95-5.12h174.12c0.28-0.57 2.06-0.36 5.33 0.64 3.27 0.99 5.19 4.76 5.76 11.31v16.22c0 0.28-0.43 1.92-1.28 4.91s-2.99 4.76-6.4 5.33H206.44c-0.85 0-3.13-0.5-6.83-1.49-3.7-1-5.41-3.91-5.12-8.75v-16.22z m20.48-174.12c-0.57-0.85-0.43-3.77 0.43-8.75 0.85-4.98 4.41-7.75 10.67-8.32h135.71c0.28-0.57 2.27-0.29 5.97 0.85 3.69 1.13 6.25 5.4 7.68 12.8v24.75c1.71 2.56-3.41 5.97-15.36 10.24H229.48c-0.85 0-3.35-0.85-7.47-2.56-4.13-1.71-6.47-5.41-7.04-11.1v-17.91zM621.25 342.44000000000005c-0.29-2.85-5.48-19.92-15.58-51.21-10.1-31.3-24.26-61.03-42.46-89.19-0.29-0.57-2.92-2.49-7.9-5.76-4.98-3.27-11.17-3.05-18.56 0.64-0.85 0.29-2.77 2.99-5.76 8.11s-2.21 11.52 2.35 19.2c1.13 0.57 8.17 12.52 21.12 35.85 12.94 23.33 24.11 53.63 33.5 90.9-0.29 0.57 1.21 2.77 4.48 6.61 3.27 3.84 9.18 5.33 17.71 4.48 0.57 0 2.63-1.35 6.19-4.05 3.55-2.71 5.19-7.9 4.91-15.58z m-19.63 55.48c-0.29-0.85-2.77-2.35-7.47-4.48s-9.89-0.36-15.58 5.33c-0.29 0.28-4.13 4.05-11.52 11.31-7.4 7.25-16.64 15.43-27.74 24.54-0.85 0-2.63 2.06-5.33 6.19-2.71 4.12-1.78 9.74 2.77 16.86 0 0.57 2.35 2.06 7.04 4.48 4.69 2.41 10.6 1.49 17.71-2.77 0.57-0.57 5.47-4.55 14.72-11.95 9.24-7.4 17.71-15.08 25.39-23.04 0.57-0.57 1.77-3.7 3.63-9.39 1.85-5.7 0.64-11.39-3.62-17.08z m-5.13 96.45c-1.99 1.42-11.95 10.52-29.87 27.31-2.28 1.13-6.26 4.83-11.95 11.1-0.85 0-2.99 2.2-6.4 6.61s-2.99 10.17 1.28 17.28c0 0.57 2.27 2.06 6.83 4.48 4.55 2.41 10.81 2.06 18.78-1.07 0.28-0.29 4.69-4.05 13.23-11.31s18.63-16.29 30.3-27.1c0.28-0.57 1.42-3.7 3.41-9.39 1.99-5.69 1.42-11.67-1.71-17.92-0.29-0.85-2.85-2.42-7.68-4.69-4.84-2.28-10.24-0.71-16.22 4.7z m36.71 34.99c-0.57 0.28 0 2.56 1.71 6.83s6.25 7.11 13.66 8.54h111.81V563.5c-0.57 0.28 0 2.41 1.71 6.4 1.71 3.98 6.25 6.68 13.66 8.11 0.57 0 3.05-0.93 7.47-2.77 4.41-1.85 7.32-5.76 8.75-11.74v-18.78h112.66c2.84 1.71 6.54-3.41 11.1-15.36 0-0.85-0.71-3.35-2.13-7.47-1.43-4.13-4.41-6.48-8.96-7.04H791.95v-23.9h95.59c0.28 0 2.56-0.85 6.83-2.56s7.11-5.12 8.54-10.24c0-0.57-0.93-2.63-2.77-6.19-1.85-3.56-6.05-5.48-12.59-5.76h-95.59v-23.9h119.49c0.57 0 2.91-0.93 7.04-2.77 4.12-1.85 6.62-5.76 7.47-11.74 0.28-0.85-0.36-3.49-1.92-7.9-1.57-4.41-5.76-6.9-12.59-7.47H631.49c-1.71 0.28-4.69 3.41-8.96 9.39s-1.28 12.8 8.96 20.48h128.88v23.9h-95.59c-0.85-0.29-3.35 0.14-7.47 1.28-4.13 1.13-6.47 4.69-7.04 10.67-0.57 0.28-0.07 2.13 1.49 5.55 1.56 3.41 5.9 5.83 13.02 7.25h95.59v23.9H648.56c-0.85-0.57-3.49-0.07-7.9 1.49-4.41 1.58-6.9 5.92-7.46 13.03z m46.94-330.74c0-0.28-1-2.41-2.99-6.4-1.99-3.98-6.69-6.68-14.08-8.11-0.85 0-3.35 0.93-7.47 2.77-4.13 1.85-6.47 5.76-7.04 11.74V362.07000000000005c-0.85 1.13-0.15 6.11 2.13 14.94 2.27 8.81 10.95 13.51 26.03 14.08h192.89c1.42 0.57 7.18-0.79 17.28-4.05 10.1-3.27 16-12.16 17.71-26.67v-123.76c0.28-0.57 0.21-3.35-0.21-8.32-0.43-4.97-2.99-10.52-7.68-16.64-4.69-6.12-13.52-10.74-26.46-13.87-12.95-3.13-31.65-2.84-56.12 0.85-0.85 0-3.49 1.35-7.9 4.05-4.41 2.71-6.9 8.18-7.47 16.43-0.29 0.57 0.92 2.49 3.63 5.76 2.7 3.27 8.32 5.19 16.86 5.76 2.56-0.85 12.16-1.57 28.81-2.13 16.64-0.57 24.68 3.27 24.11 11.52V258.79999999999995H680.14v-60.18z m0 150.65v-17.07h192.04v17.07c0 0.28-0.57 1.77-1.71 4.48-1.14 2.7-4.27 4.33-9.39 4.91h-170.7c-0.57 0-2.56-0.5-5.97-1.49-3.42-1.01-4.84-3.63-4.27-7.9z m192.04-41.82H680.14v-23.9h192.04v23.9z"  horiz-adv-x="1024" />

    
    <glyph glyph-name="hd" unicode="&#59059;" d="M859.7504-119.80799999999999H163.6352c-84.7872 0-153.8048 69.0176-153.8048 153.8048V730.112c0 84.7872 69.0176 153.8048 153.8048 153.8048h696.1152c84.7872 0 153.8048-69.0176 153.8048-153.8048v-696.1152c0-84.7872-69.0176-153.8048-153.8048-153.8048zM163.6352 805.6831999999999C122.0608 805.6831999999999 88.064 771.6864 88.064 730.112v-696.1152c0-41.7792 33.9968-75.5712 75.5712-75.5712h696.1152c41.7792 0 75.5712 33.9968 75.5712 75.5712V730.112c0 41.7792-33.9968 75.5712-75.5712 75.5712H163.6352z m0 0M477.5936 206.84799999999996h-86.016v138.8544h-91.3408v-138.8544h-86.016v350.208h86.016v-134.9632h91.3408v134.9632h86.016v-350.208z m295.1168 315.8016c-23.9616 24.1664-57.9584 34.4064-94.4128 34.4064h-129.6384v-350.208h129.6384c36.4544 0 70.656 10.24 94.4128 34.4064 41.1648 40.7552 36.4544 85.8112 36.4544 140.4928 0 55.296 4.7104 100.352-36.4544 140.9024z m-58.9824-219.5456c-7.7824-11.6736-19.6608-19.6608-41.1648-19.6608h-37.888v197.0176h37.888c21.504 0 33.3824-7.9872 41.1648-19.6608 6.9632-9.8304 9.4208-19.6608 9.4208-79.0528 0-59.1872-2.4576-68.8128-9.4208-78.6432z m0 0"  horiz-adv-x="1024" />

    
    <glyph glyph-name="biaoqing" unicode="&#59090;" d="M139.636364 779.636364A69.818182 69.818182 0 0 1 69.818182 709.818182v-651.636364A69.818182 69.818182 0 0 1 139.636364-11.636364h744.727272a69.818182 69.818182 0 0 1 69.818182 69.818182V709.818182A69.818182 69.818182 0 0 1 884.363636 779.636364H139.636364zM139.636364 849.454545h744.727272a139.636364 139.636364 0 0 0 139.636364-139.636363v-651.636364a139.636364 139.636364 0 0 0-139.636364-139.636363H139.636364a139.636364 139.636364 0 0 0-139.636364 139.636363V709.818182a139.636364 139.636364 0 0 0 139.636364 139.636363z m165.329454-595.176727H186.181818v58.181818l113.105455 275.176728H367.243636v-275.176728h29.416728v-58.181818h-29.416728v-73.914182H304.965818v73.914182z m0 58.181818V471.272727h-1.117091l-61.114182-158.813091h62.231273zM517.12 174.545455c-31.278545 0-55.342545 8.610909-72.145455 25.879272-16.756364 17.268364-25.134545 42.170182-25.134545 74.798546v36.026182c0 20.200727 3.211636 37.143273 9.634909 50.920727 6.376727 13.777455 16.756364 24.529455 31.092364 32.302545v1.163637a68.189091 68.189091 0 0 0-29.137455 30.533818c-6.190545 13.032727-9.309091 29.602909-9.309091 49.757091v16.896c0 32.581818 8.192 57.483636 24.576 74.752 16.430545 17.221818 39.889455 25.879273 70.423273 25.879272 30.580364 0 54.039273-8.610909 70.423273-25.879272 16.430545-17.268364 24.622545-42.170182 24.622545-74.752v-16.896c0-38.772364-12.8-65.536-38.446545-80.290909v-1.163637c14.336-7.773091 24.669091-18.525091 31.092363-32.302545 6.423273-13.777455 9.634909-30.72 9.634909-50.920727v-36.026182c0-32.581818-8.378182-57.530182-25.18109-74.798546-16.756364-17.221818-40.820364-25.879273-72.145455-25.879272z m0 247.296c21.876364 0 32.814545 13.544727 32.814545 40.680727v32.023273c0 27.136-10.938182 40.727273-32.814545 40.727272s-32.768-13.591273-32.768-40.727272v-32.023273c0-27.136 10.891636-40.680727 32.768-40.680727z m0-189.114182c23.412364 0 35.095273 15.36 35.095273 45.986909v38.958545c0 30.626909-11.682909 45.986909-35.095273 45.986909-23.365818 0-35.048727-15.36-35.048727-45.986909v-38.958545c0-30.673455 11.682909-45.986909 35.048727-45.986909z m226.257455-58.181818c-30.533818 0-53.899636 8.936727-70.097455 26.763636-16.244364 17.826909-24.343273 43.054545-24.343273 75.636364V491.054545c0 32.581818 8.098909 57.809455 24.343273 75.636364 16.197818 17.826909 39.563636 26.763636 70.097455 26.763636 30.580364 0 53.946182-8.936727 70.144-26.763636C829.719273 548.864 837.818182 523.636364 837.818182 491.054545v-214.10909c0-32.581818-8.098909-57.809455-24.343273-75.636364-16.197818-17.826909-39.563636-26.763636-70.144-26.763636z m0 58.181818c21.504 0 32.256 13.358545 32.256 40.168727V495.104c0 26.810182-10.705455 40.168727-32.256 40.168727-21.457455 0-32.209455-13.358545-32.209455-40.168727v-222.208c0-26.810182 10.705455-40.168727 32.209455-40.168727z"  horiz-adv-x="1024" />

    
    <glyph glyph-name="left1" unicode="&#58938;" d="M512 832c-247.296 0-448-200.704-448-448s200.704-448 448-448 448 200.704 448 448-200.704 448-448 448z m138.752-705.024c-10.752-10.752-28.672-11.264-39.424-0.512l-233.472 233.472c-1.024 1.024-2.048 2.048-3.072 4.096-5.632 5.632-8.192 12.8-8.192 19.968s2.56 14.848 8.192 20.48l3.072 3.072 233.472 233.472c10.752 10.752 28.16 10.752 39.424-0.512 10.752-10.752 11.264-28.672 0.512-39.424L433.152 384l217.6-217.6c10.752-10.752 10.752-28.672 0-39.424z"  horiz-adv-x="1024" />

    
    <glyph glyph-name="up1" unicode="&#59636;" d="M512 839.111111c251.363556 0 455.111111-203.747556 455.111111-455.111111s-203.747556-455.111111-455.111111-455.111111S56.888889 132.63644399999998 56.888889 384 260.636444 839.111111 512 839.111111z m-179.000889-532.110222L512 486.001778l179.000889-179.000889a28.444444 28.444444 0 0 1 40.220444 40.220444l-199.111111 199.111111a28.444444 28.444444 0 0 1-40.220444 0l-199.111111-199.111111a28.444444 28.444444 0 0 1 40.220444-40.220444z"  horiz-adv-x="1024" />

    
    <glyph glyph-name="jiajian" unicode="&#58939;" d="M512-128C229.205333-128 0 101.205333 0 384S229.205333 896 512 896s512-229.205333 512-512c-0.853333-282.453333-229.546667-511.146667-512-512zM778.717867 358.4H245.418667c-17.749333 0-32.085333 14.336-32.085334 32.085333v4.266667c0 17.749333 14.336 32.085333 32.085334 32.085333h533.333333c17.783467 0 32.085333-14.336 32.085333-32.085333v-4.266667a32.290133 32.290133 0 0 0-32.119466-32.085333z"  horiz-adv-x="1024" />

    
    <glyph glyph-name="jiajian1" unicode="&#58940;" d="M512 896C229.205333 896 0 666.794667 0 384s229.205333-512 512-512 512 229.205333 512 512C1023.146667 666.453333 794.453333 895.146667 512 896zM767.453867 415.982933H538.282667V651.093333a32.0512 32.0512 0 1 1-64.136534 0v-235.008H251.221333a32.529067 32.529067 0 0 1-38.4-31.914666c-1.024-16.725333 11.605333-31.061333 28.330667-32.085334h232.277333v-228.6592a32.0512 32.0512 0 1 1 64.170667 0v228.6592h228.693333c16.622933 1.536 31.0272 11.639467 32.085334 28.3648V384c-0.341333 7.338667-4.778667 31.982933-30.9248 31.982933z"  horiz-adv-x="1024" />

    
    <glyph glyph-name="right1" unicode="&#58886;" d="M512-64c247.296 0 448 200.704 448 448s-200.704 448-448 448-448-200.704-448-448 200.704-448 448-448z m-138.752 705.024c10.752 10.752 28.672 11.264 39.424 0.512l233.472-233.472c1.024-1.024 2.048-2.048 3.072-4.096 5.632-5.632 8.192-12.8 8.192-19.968s-2.56-14.848-8.192-20.48l-3.072-3.07200001-233.472-233.47199999c-10.752-10.752-28.16-10.752-39.424 0.512-10.752 10.752-11.264 28.672-0.512 39.424L590.848 384l-217.6 217.6c-10.752 10.752-10.752 28.672 0 39.424z"  horiz-adv-x="1024" />

    
    <glyph glyph-name="down1" unicode="&#58888;" d="M512-71.11111100000005c-251.363556 0-455.111111 203.747556-455.111111 455.111111s203.747556 455.111111 455.111111 455.111111S967.111111 635.363556 967.111111 384 763.363556-71.11111100000005 512-71.11111100000005z m179.000889 532.110222L512 281.99822200000006l-179.000889 179.000889a28.444444 28.444444 0 0 1-40.220444-40.22044401l199.111111-199.11111099a28.444444 28.444444 0 0 1 40.220444 0l199.111111 199.11111099a28.444444 28.444444 0 0 1-40.220444 40.22044401z"  horiz-adv-x="1024" />

    
    <glyph glyph-name="minus" unicode="&#58884;" d="M512-128C229.205333-128 0 101.205333 0 384S229.205333 896 512 896s512-229.205333 512-512c-0.853333-282.453333-229.546667-511.146667-512-512z m0 953.685333C268.117333 825.685333 70.314667 627.8826670000001 70.314667 384S268.117333-57.51466700000003 512-57.51466700000003 953.685333 140.11733300000003 953.685333 384c-0.512 243.712-197.973333 441.173333-441.685333 441.685333zM778.752 358.4H245.418667c-17.749333 0-32.085333 14.336-32.085334 32.085333v4.266667c0 17.749333 14.336 32.085333 32.085334 32.085333h533.333333c17.749333 0 32.085333-14.336 32.085333-32.085333v-4.266667c-0.170667-17.749333-14.506667-32.085333-32.085333-32.085333z"  horiz-adv-x="1024" />

    
    <glyph glyph-name="plus" unicode="&#58885;" d="M779.093333 422.4H544.085333v228.693333c0 17.749333-14.336 32.085333-32.085333 32.085334s-32.085333-14.336-32.085333-32.085334v-235.008h-228.693334c-17.578667 3.242667-34.474667-8.192-37.888-25.770666-0.341333-2.048-0.512-4.096-0.512-6.144-1.024-16.725333 11.605333-31.061333 28.330667-32.085334h232.277333v-228.693333c0-17.749333 14.336-32.085333 32.085334-32.085333s32.085333 14.336 32.085333 32.085333v228.693333h228.693333c16.725333-1.024 31.061333 11.605333 32.085334 28.330667V384c-0.170667 19.114667-0.170667 38.4-19.285334 38.4zM512 896C229.205333 896 0 666.794667 0 384s229.205333-512 512-512 512 229.205333 512 512C1023.146667 666.4533329999999 794.453333 895.146667 512 896z m0-953.685333C268.117333-57.685333000000014 70.485333 140.11733300000003 70.485333 384S268.117333 825.514667 512 825.514667 953.685333 627.8826670000001 953.685333 384c-0.512-243.712-197.973333-441.173333-441.685333-441.685333z"  horiz-adv-x="1024" />

    
    <glyph glyph-name="up" unicode="&#59635;" d="M512 881.89933511c274.99602708 0 497.89933511-222.90330913 497.89933511-497.89933511s-222.90330913-497.89933511-497.89933511-497.89933511S14.10066489 109.00397292000002 14.10066489 384 237.00397292 881.89933511 512 881.89933511z m0-62.23741703C271.39014674 819.66191808 76.33808192 624.60985326 76.33808192 384s195.05206482-435.66191808 435.66191808-435.66191808 435.66191808 195.05206482 435.66191808 435.66191808S752.60985326 819.66191808 512 819.66191808z m-195.83003241-519.90026174a31.11870797 31.11870797 0 0 0-44.00185326 44.00185327l217.83095903 217.83095904a31.11870797 31.11870797 0 0 0 44.00185328 0l217.83095903-217.83095904a31.11870797 31.11870797 0 0 0-44.00185326-44.00185327L512 495.59168875l-195.83003241-195.83003241z"  horiz-adv-x="1024" />

    
    <glyph glyph-name="down" unicode="&#58882;" d="M512-119.61536955999998c-278.15306435 0-503.61536956 225.46230631-503.61536956 503.61536956s225.46230631 503.61536956 503.61536956 503.61536956S1015.61536956 662.15306435 1015.61536956 384 790.15306435-119.61536955999998 512-119.61536955999998z m0 62.95192132C755.3721269-56.66344822999997 952.66344823 140.6278731 952.66344824 384s-197.29132132 440.66344824-440.66344824 440.66344824-440.66344824-197.29132132-440.66344824-440.66344824S268.6278731-56.66344822999997 512-56.66344823999998z m198.07822021 525.86887347a31.47596011 31.47596011 0 0 0 44.5070078-44.50700781l-220.3317241-220.3317241a31.47596011 31.47596011 0 0 0-44.50700782 0l-220.3317241 220.3317241a31.47596011 31.47596011 0 0 0 44.5070078 44.50700781L512 271.12720502l198.07822021 198.07822021z"  horiz-adv-x="1024" />

    
    <glyph glyph-name="left" unicode="&#58924;" d="M14.10078633 384c0-274.99651282 222.90270085-497.89921367 497.89921367-497.89921367S1009.89921367 109.00348717999998 1009.89921367 384 786.99651282 881.89921367 512 881.89921367 14.10078633 658.99651282 14.10078633 384z m62.23753846 0c0 240.60936752 195.05230769 435.66167521 435.66167521 435.66167521S947.66167521 624.60936752 947.66167521 384 752.60936752-51.66167521 512-51.66167521 76.33832479 143.39063248000002 76.33832479 384z m519.89989744 195.82905983a31.11822223 31.11822223 0 0 1-44.00136753 44.00246153l-217.8308376-217.82974359a31.11822223 31.11822223 0 0 1 0-44.00246153l217.82974359-217.8308376A31.11822223 31.11822223 0 0 1 596.23931624 188.16984615L400.41025641 384l195.82905983 195.82905983z"  horiz-adv-x="1024" />

    
    <glyph glyph-name="right" unicode="&#58883;" d="M1009.89921367 384c0 274.99651283-222.90270085 497.89921367-497.89921367 497.89921367S14.10078633 658.99651282 14.10078633 384 237.00348718-113.89921367 512-113.89921367 1009.89921367 109.00348717999998 1009.89921367 384z m-62.23753846 0c0-240.60936752-195.05230769-435.66167521-435.66167521-435.66167521S76.33832479 143.39063248000002 76.33832479 384 271.39063248 819.66167521 512 819.66167521 947.66167521 624.60936752 947.66167521 384z m-519.89989744-195.82905983a31.11822223 31.11822223 0 0 1 44.00136753-44.00246153l217.8308376 217.82974359a31.11822223 31.11822223 0 0 1-1e-8 44.00246153l-217.82974358 217.8308376A31.11822223 31.11822223 0 0 1 427.76068376 579.83015385L623.58974359 384l-195.82905983-195.82905983z"  horiz-adv-x="1024" />

    
    <glyph glyph-name="close" unicode="&#58881;" d="M512-119.99400000000003C233.612-119.99400000000003 8.006 105.58799999999997 8.006 384 8.006 662.388 233.612 887.994 512 887.994c278.412 0 503.994-225.606 503.994-503.994 0-278.412-225.582-503.994-503.994-503.994z m0 936.727C273.617 816.733 79.267 622.383 79.267 384S273.617-48.73299999999995 512-48.73299999999995 944.733 145.61699999999996 944.733 384 750.383 816.733 512 816.733zM548.794 384l195.212 195.188c9.588 9.612 9.588 25.6 0 36.818l-1.606 1.582a25.111 25.111 0 0 1-35.188 0L512 420.794 316.812 616.006a25.111 25.111 0 0 1-35.212 0l-1.606-1.606c-9.588-9.612-9.588-25.6 0-36.794L475.23 384 280.017 188.788c-9.588-9.588-9.588-25.6 0-36.77l1.606-1.63c9.612-9.588 25.6-9.588 35.212 0L512 347.23l195.212-195.212c9.588-9.588 25.6-9.588 35.188 0l1.606 1.606c9.588 9.589 9.588 25.6 0 36.794L548.77 384z"  horiz-adv-x="1024" />

    
    <glyph glyph-name="quanping" unicode="&#59841;" d="M918.6 750H633.9c-22.5 0-40.7 18.2-40.7 40.7s18.2 40.7 40.7 40.7h284.7c22.5 0 40.7-18.2 40.7-40.7S941.1 750 918.6 750m-529 0H105.4c-22.5 0-40.7 18.2-40.7 40.7s18.2 40.7 40.7 40.7h284.5c22.5 0 40.7-18.2 40.7-40.7S412.4 750 389.9 750M878 505.9V790.5c0 22.5 18.2 40.7 40.7 40.7 22.5 0 40.7-18.2 40.7-40.7V506c0-22.5-18.2-40.7-40.7-40.7-22.5-0.1-40.7 18.2-40.7 40.6m-813.5 0V790.5c0 22.5 18.2 40.7 40.7 40.7s40.7-18.2 40.7-40.7V506c0-22.5-18.2-40.7-40.7-40.7s-40.7 18.2-40.7 40.6m40.7-488.1h284.7c22.5 0 40.7-18.2 40.7-40.7 0-22.5-18.2-40.7-40.7-40.7H105.4c-22.5 0-40.7 18.2-40.7 40.7 0 22.5 18.2 40.7 40.7 40.7m529 0h284.7c22.5 0 40.7-18.2 40.7-40.7 0-22.5-18.2-40.7-40.7-40.7H633.9c-22.5 0-40.7 18.2-40.7 40.7 0 22.5 18.2 40.7 40.7 40.7M145.8-22.9c0-22.5-18.2-40.7-40.7-40.7s-40.7 18.2-40.7 40.7V262c0 22.5 18.2 40.7 40.7 40.7s40.7-18.2 40.7-40.7v-284.9z m813.5 0c0-22.5-18.2-40.7-40.7-40.7-22.5 0-40.7 18.2-40.7 40.7V262c0 22.5 18.2 40.7 40.7 40.7 22.5 0 40.7-18.2 40.7-40.7v-284.9zM889.9 819.4c15.2 16.6 40.9 17.7 57.5 2.6 16.6-15.2 17.7-40.9 2.6-57.5-0.8-0.9-1.7-1.7-2.5-2.5L674.6 489.1c-15.9-15.9-41.6-15.9-57.5 0-15.9 15.9-15.9 41.6 0 57.5L889.9 819.4zM349.2 278.7c16.6 15.2 42.3 14.1 57.5-2.5 14.2-15.5 14.3-39.4 0-55L133.9-51.7c-15.9-15.9-41.6-15.9-57.5 0-15.9 15.9-15.9 41.6 0 57.5l272.8 272.9z"  horiz-adv-x="1024" />

    
    <glyph glyph-name="quanping1" unicode="&#58901;" d="M512 896a512 512 0 1 1 512-512A512 512 0 0 1 512 896z m-101.546667-729.031111v-61.724445H236.657778v174.08h59.733333v-53.191111H312.888889l104.391111 104.391111 41.813333-41.813333L355.555556 184.888889v-17.92z m7.111111 270.506667L312.888889 541.866667h-16.782222v-53.191111H236.657778V662.755556h173.795555v-61.724445H355.555556V583.111111l103.822222-103.822222z m369.777778-332.231112h-173.795555v61.724445h54.897777V184.888889l-103.822222 103.822222 41.813334 41.813333L711.111111 226.133333h16.782222v53.191111h59.733334z m0 383.431112h-59.733333v53.191111H711.111111l-104.391111-104.391111-41.813333 41.813333L668.444444 583.111111v17.92h-54.897777V662.755556h173.795555z"  horiz-adv-x="1024" />

    
    <glyph glyph-name="Exits" unicode="&#58880;" d="M510.39999998 892.55C232.05759998 892.55 6.39999998 666.8923999900001 6.39999998 388.55 6.39999998 110.20759999999996 232.05759998-115.45000000000005 510.39999998-115.45000000000005c278.3424 0 504 225.6576 504 504C1014.39999998 666.8923999900001 788.74239998 892.55 510.39999998 892.55zM476.79999998 657.35C476.79999998 675.8972 491.85279998 690.95 510.39999998 690.95S543.99999998 675.8972 543.99999998 657.35l0-201.6C543.99999998 437.2028 528.94719998 422.14999999 510.39999998 422.14999999S476.79999998 437.2028 476.79999998 455.75L476.79999998 657.35zM510.39999998 86.14999999999998c-148.4448 0-268.8 120.3552-268.8 268.8 0 112.7616 69.552 208.9248 168 248.84159999l0-75.26399999C349.59039998 493.51639999 308.79999998 429.20599999 308.79999998 354.95000000000005c0-111.1488 90.4512-201.6 201.6-201.6s201.6 90.4512 201.6 201.6c0 74.256-40.7904 138.6336-100.8 173.5776l0 75.26399999C709.64799998 563.8747999899999 779.19999998 467.71159999 779.19999998 354.95000000000005 779.19999998 206.50519999999995 658.84479998 86.14999999999998 510.39999998 86.14999999999998z"  horiz-adv-x="1024" />

    
    <glyph glyph-name="guanbi" unicode="&#59126;" d="M0 384C0 666.4 229.6 896 512 896s512-229.6 512-512-229.6-512-512-512S0 101.6 0 384zM704.8 576.8c10.4-11.2 10.4-28 0-38.4L358.4 191.2c-11.2-10.4-28-10.4-38.4 0-10.4 11.2-10.4 28 0 38.4L666.4 576c10.4 11.2 27.2 11.2 38.4 0.8zM319.2 576.8c11.2 10.4 28 10.4 38.4 0L704 230.4c10.4-11.2 10.4-28 0-38.4-11.2-10.4-28-10.4-38.4 0L319.2 537.6c-10.4 11.2-10.4 28 0 39.2z"  horiz-adv-x="1024" />

    
    <glyph glyph-name="kuaijin" unicode="&#59014;" d="M512 896C229.205333 896 0 666.773333 0 384c0-282.794667 229.205333-512 512-512s512 229.205333 512 512C1024 666.773333 794.794667 896 512 896zM512-48C273.408-48 80 145.408 80 384 80 622.592 273.408 816 512 816S944 622.592 944 384C944 145.408 750.592-48 512-48zM352 224 544 384 352 544ZM544 384 544 224 736 384 544 544Z"  horiz-adv-x="1024" />

    
    <glyph glyph-name="bofang" unicode="&#58929;" d="M512-127.534545C232.261818-127.534545 0.465455 104.261818 0.465455 384S232.261818 895.534545 512 895.534545 1023.534545 663.738182 1023.534545 384 791.738182-127.534545 512-127.534545z m0 959.115636A446.836364 446.836364 0 0 1 64.418909 384 446.836364 446.836364 0 0 1 512-63.581091 446.836364 446.836364 0 0 1 959.581091 384 446.836364 446.836364 0 0 1 512 831.581091z m164.724364-487.936L436.596364 179.106909c-32.535273-22.341818-58.88-8.564364-58.88 30.952727V557.940364c0 39.424 26.298182 53.294545 58.88 30.999272l240.081454-164.584727c32.535273-22.295273 32.581818-58.368 0-80.709818z"  horiz-adv-x="1024" />

    
    <glyph glyph-name="kuaijinh" unicode="&#58914;" d="M512-128C229.216-128 0 101.216 0 384S229.216 896 512 896s512-229.216 512-512-229.216-512-512-512zM352 544l192-160-192-160zM544 384v160l192-160-192-160z"  horiz-adv-x="1024" />

    
    <glyph glyph-name="houtuih" unicode="&#58915;" d="M512 896c282.784 0 512-229.216 512-512s-229.216-512-512-512S0 101.216 0 384 229.216 896 512 896zM672 224l-192 160 192 160zM480 384v-160l-192 160 192 160z"  horiz-adv-x="1024" />

    
    <glyph glyph-name="houtuin" unicode="&#58916;" d="M512 896c282.784 0 512-229.216 512-512s-229.216-512-512-512S0 101.216 0 384 229.216 896 512 896z m0-944c238.592 0 432 193.408 432 432S750.592 816 512 816 80 622.592 80 384 273.408-48 512-48z m160 272l-192 160 192 160v-320z m-192 160v-160l-192 160 192 160v-160z"  horiz-adv-x="1024" />

    
    <glyph glyph-name="zantingtubiao" unicode="&#58887;" d="M512 896C229.232 896 0 666.768 0 384s229.232-512 512-512 512 229.232 512 512S794.768 896 512 896zM369.984 532.656c0 8.8 7.2 16 16 16h48.16c8.8 0 16-7.2 16-16v-297.312c0-8.8-7.2-16-16-16h-48.16c-8.8 0-16 7.2-16 16V532.656z m203.872 0c0 8.8 7.2 16 16 16h48.16c8.8 0 16-7.2 16-16v-297.312c0-8.8-7.2-16-16-16h-48.16c-8.8 0-16 7.2-16 16V532.656z m-15.84 16"  horiz-adv-x="1024" />

    
    <glyph glyph-name="bofang1" unicode="&#58923;" d="M512 384m-512 0a512 512 0 1 1 1024 0 512 512 0 1 1-1024 0ZM734.608696 384L378.434783 161.391304V606.608696z"  horiz-adv-x="1024" />

    
    <glyph glyph-name="bofangzhong" unicode="&#58991;" d="M512 871.619048C243.809524 871.619048 24.380952 652.190476 24.380952 384s219.428571-487.619048 487.619048-487.619048 487.619048 219.428571 487.619048 487.619048-219.428571 487.619048-487.619048 487.619048z m0-911.847619c-234.057143 0-424.228571 190.171429-424.228571 424.228571 0 234.057143 190.171429 424.228571 424.228571 424.228571 234.057143 0 424.228571-190.171429 424.228571-424.228571 0-234.057143-190.171429-424.228571-424.228571-424.228571z m-97.52381 619.27619c-29.257143 0-48.761905-19.504762-48.761904-48.761905v-292.571428c0-29.257143 19.504762-48.761905 48.761904-48.761905s48.761905 19.504762 48.761905 48.761905v292.571428c0 29.257143-19.504762 48.761905-48.761905 48.761905z m195.04762 0c-29.257143 0-48.761905-19.504762-48.761905-48.761905v-292.571428c0-29.257143 19.504762-48.761905 48.761905-48.761905s48.761905 19.504762 48.761904 48.761905v292.571428c0 29.257143-19.504762 48.761905-48.761904 48.761905z"  horiz-adv-x="1024" />

    


  </font>
</defs>
</svg>
